# xmcd CD database file
#
# Track frame offsets:
#	150
#	19215
#	30717
#	43725
#	54360
#	70782
#	81827
#	92712
#	107451
#	117127
#	128487
#	137260
#	152859
#	162775
#	172341
#	186865
#	200994
#	213249
#
# Disc length: 3043 seconds
#
# Revision: 0
# Processed by: cddbd v1.5.2PL0 Copyright (c) Steve Scherf et al.
# Submitted via: CDex 1.70beta2
#
DISCID=f30be112
DTITLE=The Legandary Rat Pack - Frank [CD 1)
DYEAR=2008
DGENRE=Jazz
TTITLE0=Stormy Weather
TTITLE1=That Old Black Magic
TTITLE2=I Get A Kick Out Of You
TTITLE3=Jeepers Creepers
TTITLE4=Night And Day
TTITLE5=I'm Gonna Sit Right Down And Write Myself A Letter
TTITLE6=Get Happy
TTITLE7=Embraceable You
TTITLE8=I've Got The World on A String
TTITLE9=Lean Baby
TTITLE10=They Can't Take That Away From Me
TTITLE11=Birth Of The Blues
TTITLE12=Taking A Chance On Love
TTITLE13=Just One Of Those Things
TTITLE14=All Of Me
TTITLE15=The Geal That Got Away
TTITLE16=April In Paris
TTITLE17=Stella By Starlight
EXTD=YEAR: 2008
EXTT0=
EXTT1=
EXTT2=
EXTT3=
EXTT4=
EXTT5=
EXTT6=
EXTT7=
EXTT8=
EXTT9=
EXTT10=
EXTT11=
EXTT12=
EXTT13=
EXTT14=
EXTT15=
EXTT16=
EXTT17=
PLAYORDER=
